<svg width="1400" height="500" viewBox="0 0 1400 500" fill="none" xmlns="http://www.w3.org/2000/svg">
<path d="M500.949 286.752L477.131 251.436C476.72 250.826 476.5 250.107 476.5 249.371C476.5 247.927 477.343 246.615 478.657 246.014L490.163 240.754C492.423 239.721 495.096 240.343 496.667 242.269L502.616 249.561C504.509 251.882 508.243 250.143 507.77 247.186C507.605 246.155 508.023 245.108 508.858 244.481C509.278 244.167 509.777 243.976 510.299 243.929L524.882 242.643C525.861 242.556 526.796 243.068 527.251 243.94C528.463 246.263 531.988 245.289 531.834 242.673L531.147 230.996C531.067 229.642 532.144 228.5 533.5 228.5L551 229C552.105 229 553 229.895 553 231V262.287C553 263.093 552.912 263.897 552.737 264.684L550.886 273.012C550.004 276.981 553.527 280.53 557.502 279.678C560.532 279.029 562.452 276.036 561.78 273.012L561.279 270.755C561.094 269.924 561.045 269.068 561.135 268.222L562.334 256.828C562.772 252.669 564.191 248.673 566.476 245.17C569.108 241.134 572.795 237.895 577.137 235.804L580.608 234.133C582.859 233.049 585.246 232.274 587.703 231.827C592.484 230.957 597.41 231.355 601.989 232.98L607.829 235.052C609.604 235.682 611.301 236.513 612.888 237.528L616.951 240.129C620.77 242.573 623.257 246.635 623.697 251.148L624.427 258.628C624.752 261.959 627.553 264.5 630.9 264.5C634.33 264.5 637.171 261.836 637.39 258.412L639.324 228.24C639.423 226.699 640.702 225.5 642.246 225.5C642.415 225.5 642.584 225.515 642.75 225.544L657.073 228.05C660.211 228.599 662.5 231.324 662.5 234.509V242.719C662.5 246.633 667.547 248.21 669.775 244.992C670.795 243.519 672.671 242.905 674.364 243.491L681.27 245.882C683.298 246.584 684.865 248.218 685.482 250.274L685.827 251.424C685.94 251.801 685.952 252.202 685.86 252.585C685.281 254.996 688.481 256.408 689.872 254.355L693.083 249.616C693.357 249.21 693.72 248.872 694.143 248.625L695.578 247.788C697.889 246.44 700.819 246.819 702.71 248.71C705.406 251.406 709.913 250.87 711.901 247.617L716.738 239.702C718.207 237.297 720.408 235.426 723.018 234.363L729.176 231.854C731.198 231.031 733.514 231.474 735.089 232.986L743.71 241.261C744.177 241.71 743.86 242.5 743.211 242.5C743.073 242.5 742.938 242.54 742.822 242.614L737.959 245.74C736.738 246.525 736 247.878 736 249.329C736 250.963 736.933 252.453 738.402 253.167L748.82 258.227C751.796 259.672 754.007 262.326 754.892 265.513L755.573 267.964C755.849 268.957 755.771 270.015 755.352 270.957C753.915 274.191 756.652 277.725 760.142 277.143L760.442 277.093C762.532 276.745 764.114 275.016 764.277 272.903L765.728 254.042C765.882 252.037 764.479 250.247 762.496 249.916L760.976 249.663C759.048 249.341 758.03 247.197 759 245.5L764.641 232.202C765.43 230.343 767.427 229.306 769.401 229.729C771.462 230.171 773.533 229.02 774.247 227.037L776.053 222.019C776.849 219.808 779.299 218.675 781.5 219.5L798.452 226.192C799.483 226.599 799.844 227.875 799.179 228.761C799.061 228.919 798.971 229.097 798.914 229.286L797.326 234.581C796.577 237.076 797.872 239.728 800.3 240.672C802.888 241.679 804.158 244.604 803.127 247.183L800.339 254.151C799.631 255.923 800.648 257.912 802.499 258.375C803.954 258.738 805.463 258.026 806.106 256.671L810.891 246.598C813.162 241.817 817.558 238.388 822.748 237.35L832.54 235.392C835.502 234.8 838.376 233.834 841.094 232.519L850.069 228.177C851.642 227.415 853.446 227.223 855.147 227.623C858.553 228.424 861 231.473 861 234.972C861 235.654 861.093 236.333 861.275 236.99L865.193 251.096C865.727 253.019 866.577 254.839 867.707 256.484L870.022 259.851C870.976 261.237 872.395 262.236 874.022 262.664C877.845 263.67 881.744 261.324 882.647 257.475L886.929 239.205C887.789 235.535 891.512 233.303 895.154 234.274C895.716 234.424 896.294 234.5 896.875 234.5H905.474C909.467 234.5 913.436 235.122 917.237 236.344L923.703 238.422C924.886 238.803 925.969 239.442 926.874 240.293C930.615 243.815 930.325 249.845 926.263 252.99L921.473 256.698C919.598 258.15 917.156 258.649 914.861 258.051C910.599 256.939 906.28 259.649 905.428 263.971L902.314 279.767C901.03 286.278 894.762 290.557 888.23 289.381L886.357 289.044C880.277 287.95 876.473 281.844 878.17 275.905L880.35 268.274C880.71 267.013 879.991 265.697 878.735 265.32C877.308 264.892 875.84 265.856 875.666 267.336L874.855 274.235C874.367 278.378 870.856 281.5 866.685 281.5H863.484C860.006 281.5 856.704 283.031 854.457 285.687L853.021 287.384C849.281 291.804 843.51 293.959 837.789 293.073L823.652 290.883C816.203 289.729 810.044 284.469 807.737 277.293C807.247 275.77 806.576 274.311 805.738 272.949L800.238 264.012C799.451 262.732 798.153 261.851 796.673 261.589C793.453 261.021 790.5 263.498 790.5 266.769V272.56C790.5 273.185 790.558 273.809 790.673 274.424L790.99 276.111C791.638 279.569 790.925 283.144 789 286.089L787.595 288.237C785.16 291.961 780.584 293.667 776.305 292.444C774.161 291.832 772.279 290.531 770.948 288.742L767.516 284.131C762.939 277.981 753.383 279.267 750.596 286.409C749.581 289.011 747.5 291.053 744.879 292.018L738.332 294.43C733.347 296.267 727.747 294.734 724.391 290.616L722.148 287.864C720.251 285.536 719.983 282.28 721.473 279.673C723.433 276.243 722.291 271.875 718.904 269.842L717.151 268.791C713.076 266.346 707.816 267.346 704.923 271.116L696.128 282.575C694.389 284.842 692.28 286.801 689.892 288.371L681.014 294.205C677.863 296.276 673.913 296.717 670.382 295.393L669.275 294.978C666.011 293.754 663.647 290.882 663.074 287.443L662.77 285.617C662.595 284.571 662.064 283.619 661.266 282.92C659.65 281.506 657.268 281.403 655.536 282.674L654.243 283.622C652.252 285.082 649.612 285.306 647.403 284.202L639.058 280.029C637.797 279.398 637 278.109 637 276.699C637 273.778 633.791 271.995 631.311 273.537L619.5 280.879C618.835 281.292 618.214 281.772 617.648 282.312L616.354 283.544C610.991 288.651 603.87 291.5 596.464 291.5H591.734C589.25 291.5 586.771 291.272 584.329 290.82L550.68 284.589C548.579 284.2 546.424 284.215 544.329 284.634L535.9 286.32C533.868 286.726 531.804 285.791 530.77 283.995C528.403 279.885 522.147 281.305 521.774 286.034C521.61 288.103 520.143 289.839 518.129 290.343L513.396 291.526C508.656 292.711 503.681 290.803 500.949 286.752Z" fill="#83C1E0" stroke="#83C1E0"/>
<path d="M897.47 289.315L878.744 285.39C877.631 285.092 876.903 284.102 877.201 282.989L887.525 234.075C887.823 232.962 888.906 232.258 889.926 232.531L900.832 234.857C906.261 234.623 911.282 235.173 915.919 236.415C919.071 237.26 922.032 238.451 924.733 239.87C926.024 240.614 926.382 241.505 926.084 242.617C925.984 242.988 925.792 243.334 925.575 243.773L919.383 256.127C918.757 257.351 917.655 257.752 916.543 257.454C916.265 257.379 915.918 257.187 915.572 256.995C914.213 256.134 912.711 255.433 911.135 255.011C909.836 254.663 908.489 254.5 906.906 254.474L899.872 287.772L899.822 287.957C899.549 288.977 898.491 289.588 897.47 289.315Z" fill="#F07779"/>
<path d="M875.569 265.242L873.949 278.193C873.695 280.022 873.089 281.162 871.916 281.589C871.014 281.917 864.174 282.772 858.12 280.174C854.316 284.317 849.838 287.173 845.238 288.847C830.172 294.33 812.979 287.512 807.693 272.988C803.753 262.162 805.741 243.765 823.602 237.264C828.113 235.622 832.894 235.006 836.971 235.259C837.282 234.43 837.995 233.864 839.078 233.47L839.529 233.306L855.628 228.979C858.039 228.306 859.097 229.249 859.491 230.331L859.656 230.782C861.381 239.451 862.974 247.759 865.141 253.713C867.111 259.125 869.515 262.643 872.96 263.126C874.027 263.249 875.216 263.429 875.544 264.331C875.61 264.512 875.618 264.815 875.569 265.242ZM846.741 268.277C845.616 266.03 844.516 263.569 843.499 260.773C842.645 258.427 841.849 255.959 841.044 253.187C839.305 251.777 836.409 251.4 833.793 252.352C828.11 254.421 826.956 261.073 828.63 265.674C830.469 270.725 835.563 273.775 841.427 271.641C843.141 271.017 844.994 269.934 846.741 268.277Z" fill="#F07779"/>
<path d="M790.723 280.058L782.59 290.309C781.349 291.851 780.254 292.536 778.87 292.139C778.593 292.059 778.316 291.98 778.066 291.808C764.055 284.595 761.216 274.993 767.45 251.513L760.634 249.159C759.646 248.776 759.08 247.615 759.371 246.6L764.871 231.599C765.254 230.61 766.323 230.018 767.43 230.335L773.23 232.398C774.42 228.944 775.69 225.214 777.105 221.325C777.514 220.244 778.202 218.544 780.601 219.232L780.97 219.338L798.173 225.169C799.715 225.711 800.189 226.846 799.739 228.415C798.443 232.238 797.002 236.219 795.614 240.015L801.876 242.21C802.891 242.501 803.457 243.662 803.139 244.769L797.639 259.77C797.282 260.667 796.306 261.286 795.291 260.995L795.106 260.942L789.095 258.918C786.687 267.316 785.969 274.001 789.526 276.918C790.409 277.671 791.41 278.358 791.119 279.373C791.066 279.557 790.895 279.808 790.723 280.058Z" fill="#F07779"/>
<path d="M734.56 292.926L733.603 293.372C731.688 294.265 730.656 294.322 729.444 293.087L720.91 284.779C720.701 284.559 720.492 284.338 720.411 284.164C719.803 282.859 721.462 281.874 722.506 281.387C727.599 278.906 728.899 275.334 727.925 273.246C727.398 272.115 725.617 271.25 723.669 270.252L720.103 268.737C714.246 266.172 710.935 263.161 709.393 259.855C704.809 250.024 716.557 238.19 727.954 232.875C731.347 231.293 732.38 231.235 733.719 232.517L742.341 240.784C742.677 241.051 742.799 241.312 742.92 241.573C743.367 242.53 742.572 243.325 741.441 243.852L741.093 244.014C735.872 246.449 734.683 249.122 735.494 250.862C736.184 252.341 738.26 253.386 743.27 255.498C749.301 257.982 752.867 261.086 754.408 264.392C759.196 274.659 746.218 287.489 734.56 292.926Z" fill="#F07779"/>
<path d="M673.224 295.435L666.602 292.348L666.009 292.033C664.652 291.312 663.985 290.522 663.893 289.059C663.925 287.772 665.368 276.47 665.995 272.02C666.101 271.206 666.022 270.947 665.937 270.902C665.767 270.811 665.412 271.275 665.147 271.569C662.271 274.933 655.99 282.248 654.14 284.091C653.345 284.973 651.448 285.269 649.962 284.588L641.345 280.55L640.921 280.324C639.395 279.513 638.14 278.193 638.278 276.092L641.178 228.924C641.194 228.281 641.215 227.422 641.576 226.744C641.982 225.981 642.896 225.489 644.906 225.797L659.445 228.308C660.129 228.454 660.682 228.64 661.106 228.865C662.293 229.496 662.74 230.495 662.674 231.438L661.63 254.259C661.619 254.689 661.743 254.864 661.913 254.954C662.082 255.044 662.472 254.925 662.827 254.461C664.698 251.76 668.452 245.927 668.942 245.209C670.103 243.435 671.306 243.422 673.431 244.334L683.404 249.093L683.828 249.318C685.014 249.949 685.552 250.779 685.384 252.321L682.18 263.664C682.129 263.963 682.119 264.393 682.288 264.483C682.542 264.618 683.027 264.115 696.622 247.749C697.772 246.404 698.845 246.431 699.947 247.017C700.71 247.422 701.467 248.043 702.14 248.618L711.315 256.105C713.548 257.836 713.515 259.124 712.884 260.31C712.659 260.734 712.304 261.198 711.994 261.576C688.179 291.643 678.53 297.929 673.224 295.435Z" fill="#F07779"/>
<path d="M623.9 267.385C620.649 285.821 600.113 292.825 586.688 290.458C571.278 287.741 559.725 274.201 562.659 257.562C566.093 238.086 582.436 230.537 599.076 233.471C619.969 237.155 626.067 255.095 623.9 267.385ZM592.141 272.801C598.853 273.984 602.846 269.034 603.796 263.645C604.112 261.849 605.351 252.612 595.708 250.912C587.767 249.511 584.314 255.824 583.564 260.078C582.414 266.601 586.752 271.85 592.141 272.801Z" fill="#F07779"/>
<path d="M543.478 284.76L536.36 286.405L535.698 286.522C534.185 286.789 533.173 286.577 532.2 285.482C531.433 284.447 525.612 274.653 523.366 270.76C522.949 270.054 522.726 269.898 522.632 269.915C522.442 269.948 522.448 270.532 522.42 270.927C522.225 275.348 521.779 284.98 521.456 287.571C521.372 288.756 520.059 290.157 518.469 290.535L509.193 292.658L508.72 292.741C507.018 293.041 505.216 292.774 504.032 291.033L477.277 252.08C476.894 251.562 476.382 250.873 476.249 250.116C476.099 249.265 476.516 248.315 478.29 247.319L491.293 240.347C491.922 240.042 492.472 239.847 492.945 239.764C494.268 239.53 495.236 240.042 495.764 240.826L508.992 259.452C509.247 259.797 509.453 259.858 509.642 259.825C509.831 259.792 510.065 259.458 510.059 258.874C509.871 255.593 509.238 248.686 509.182 247.819C509.005 245.705 509.945 244.955 512.18 244.366L522.969 241.976L523.442 241.892C524.765 241.659 525.7 241.982 526.517 243.3L530.975 254.211C531.12 254.478 531.376 254.823 531.565 254.79C531.848 254.74 531.921 254.045 532.558 232.779C532.636 231.011 533.498 230.371 534.727 230.154C535.578 230.004 536.557 230.027 537.441 230.066L549.28 230.318C552.106 230.307 552.873 231.341 553.106 232.665C553.19 233.138 553.195 233.722 553.184 234.211C552.928 272.566 549.195 283.46 543.478 284.76Z" fill="#F07779"/>
<mask id="mask0_1_4" style="mask-type:alpha" maskUnits="userSpaceOnUse" x="476" y="219" width="451" height="77">
<path d="M897.47 289.315L878.744 285.39C877.631 285.092 876.903 284.102 877.201 282.989L887.525 234.075C887.823 232.962 888.906 232.258 889.926 232.531L900.832 234.857C906.261 234.623 911.282 235.173 915.919 236.415C919.071 237.26 922.032 238.451 924.733 239.87C926.024 240.614 926.382 241.505 926.084 242.617C925.984 242.988 925.792 243.334 925.575 243.773L919.383 256.127C918.757 257.351 917.655 257.752 916.543 257.454C916.265 257.379 915.918 257.187 915.572 256.995C914.213 256.134 912.711 255.433 911.135 255.011C909.836 254.663 908.489 254.5 906.906 254.474L899.872 287.772L899.822 287.957C899.549 288.977 898.491 289.588 897.47 289.315Z" fill="#F07779"/>
<path d="M875.569 265.242L873.949 278.193C873.695 280.022 873.089 281.162 871.916 281.589C871.014 281.917 864.174 282.772 858.12 280.174C854.316 284.317 849.838 287.173 845.238 288.847C830.172 294.33 812.979 287.512 807.693 272.988C803.753 262.162 805.741 243.765 823.602 237.264C828.113 235.622 832.894 235.006 836.971 235.259C837.282 234.43 837.995 233.864 839.078 233.47L839.529 233.306L855.628 228.979C858.039 228.306 859.097 229.249 859.491 230.331L859.656 230.782C861.381 239.451 862.974 247.759 865.141 253.713C867.111 259.125 869.515 262.643 872.96 263.126C874.027 263.249 875.216 263.429 875.544 264.331C875.61 264.512 875.618 264.815 875.569 265.242ZM846.741 268.277C845.616 266.03 844.516 263.569 843.499 260.773C842.645 258.427 841.849 255.959 841.044 253.187C839.305 251.777 836.409 251.4 833.793 252.352C828.11 254.421 826.956 261.073 828.63 265.674C830.469 270.725 835.563 273.775 841.427 271.641C843.141 271.017 844.994 269.934 846.741 268.277Z" fill="#F07779"/>
<path d="M790.723 280.058L782.59 290.309C781.349 291.851 780.254 292.536 778.87 292.139C778.593 292.059 778.316 291.98 778.066 291.808C764.055 284.595 761.216 274.993 767.45 251.513L760.634 249.159C759.646 248.776 759.08 247.615 759.371 246.6L764.871 231.599C765.254 230.61 766.323 230.018 767.43 230.335L773.23 232.398C774.42 228.944 775.69 225.214 777.105 221.325C777.514 220.244 778.202 218.544 780.601 219.232L780.97 219.338L798.173 225.169C799.715 225.711 800.189 226.846 799.739 228.415C798.443 232.238 797.002 236.219 795.614 240.015L801.876 242.21C802.891 242.501 803.457 243.662 803.139 244.769L797.639 259.77C797.282 260.667 796.306 261.286 795.291 260.995L795.106 260.942L789.095 258.918C786.687 267.316 785.969 274.001 789.526 276.918C790.409 277.671 791.41 278.358 791.119 279.373C791.066 279.557 790.895 279.808 790.723 280.058Z" fill="#F07779"/>
<path d="M734.56 292.926L733.603 293.372C731.688 294.265 730.656 294.322 729.444 293.087L720.91 284.779C720.701 284.559 720.492 284.338 720.411 284.164C719.803 282.859 721.462 281.874 722.506 281.387C727.599 278.906 728.899 275.334 727.925 273.246C727.398 272.115 725.617 271.25 723.669 270.252L720.103 268.737C714.246 266.172 710.935 263.161 709.393 259.855C704.809 250.024 716.557 238.19 727.954 232.875C731.347 231.293 732.38 231.235 733.719 232.517L742.341 240.784C742.677 241.051 742.799 241.312 742.92 241.573C743.367 242.53 742.572 243.325 741.441 243.852L741.093 244.014C735.872 246.449 734.683 249.122 735.494 250.862C736.184 252.341 738.26 253.386 743.27 255.498C749.301 257.982 752.867 261.086 754.408 264.392C759.196 274.659 746.218 287.489 734.56 292.926Z" fill="#F07779"/>
<path d="M673.224 295.435L666.602 292.348L666.009 292.033C664.652 291.312 663.985 290.522 663.893 289.059C663.925 287.772 665.368 276.47 665.995 272.02C666.101 271.206 666.022 270.947 665.937 270.902C665.767 270.811 665.412 271.275 665.147 271.569C662.271 274.933 655.99 282.248 654.14 284.091C653.345 284.973 651.448 285.269 649.962 284.588L641.345 280.55L640.921 280.324C639.395 279.513 638.14 278.193 638.278 276.092L641.178 228.924C641.194 228.281 641.215 227.422 641.576 226.744C641.982 225.981 642.896 225.489 644.906 225.797L659.445 228.308C660.129 228.454 660.682 228.64 661.106 228.865C662.293 229.496 662.74 230.495 662.674 231.438L661.63 254.259C661.619 254.689 661.743 254.864 661.913 254.954C662.082 255.044 662.472 254.925 662.827 254.461C664.698 251.76 668.452 245.927 668.942 245.209C670.103 243.435 671.306 243.422 673.431 244.334L683.404 249.093L683.828 249.318C685.014 249.949 685.552 250.779 685.384 252.321L682.18 263.664C682.129 263.963 682.119 264.393 682.288 264.483C682.542 264.618 683.027 264.115 696.622 247.749C697.772 246.404 698.845 246.431 699.947 247.017C700.71 247.422 701.467 248.043 702.14 248.618L711.315 256.105C713.548 257.836 713.515 259.124 712.884 260.31C712.659 260.734 712.304 261.198 711.994 261.576C688.179 291.643 678.53 297.929 673.224 295.435Z" fill="#F07779"/>
<path d="M623.9 267.385C620.649 285.821 600.113 292.825 586.688 290.458C571.278 287.741 559.725 274.201 562.659 257.562C566.093 238.086 582.436 230.537 599.076 233.471C619.969 237.155 626.067 255.095 623.9 267.385ZM592.141 272.801C598.853 273.984 602.846 269.034 603.796 263.645C604.112 261.849 605.351 252.612 595.708 250.912C587.767 249.511 584.314 255.824 583.564 260.078C582.414 266.601 586.752 271.85 592.141 272.801Z" fill="#F07779"/>
<path d="M543.478 284.76L536.36 286.405L535.698 286.522C534.185 286.789 533.173 286.577 532.2 285.482C531.433 284.447 525.612 274.653 523.366 270.76C522.949 270.054 522.726 269.898 522.632 269.915C522.442 269.948 522.448 270.532 522.42 270.927C522.225 275.348 521.779 284.98 521.456 287.571C521.372 288.756 520.059 290.157 518.469 290.535L509.193 292.658L508.72 292.741C507.018 293.041 505.216 292.774 504.032 291.033L477.277 252.08C476.894 251.562 476.382 250.873 476.249 250.116C476.099 249.265 476.516 248.315 478.29 247.319L491.293 240.347C491.922 240.042 492.472 239.847 492.945 239.764C494.268 239.53 495.236 240.042 495.764 240.826L508.992 259.452C509.247 259.797 509.453 259.858 509.642 259.825C509.831 259.792 510.065 259.458 510.059 258.874C509.871 255.593 509.238 248.686 509.182 247.819C509.005 245.705 509.945 244.955 512.18 244.366L522.969 241.976L523.442 241.892C524.765 241.659 525.7 241.982 526.517 243.3L530.975 254.211C531.12 254.478 531.376 254.823 531.565 254.79C531.848 254.74 531.921 254.045 532.558 232.779C532.636 231.011 533.498 230.371 534.727 230.154C535.578 230.004 536.557 230.027 537.441 230.066L549.28 230.318C552.106 230.307 552.873 231.341 553.106 232.665C553.19 233.138 553.195 233.722 553.184 234.211C552.928 272.566 549.195 283.46 543.478 284.76Z" fill="#F07779"/>
</mask>
<g mask="url(#mask0_1_4)">
<path d="M868.573 401.318L511.659 365.494C476.354 361.95 456.208 323.426 473.44 292.409C484.367 272.74 507.213 262.95 528.992 268.604L579.45 281.703C590.268 284.512 601.655 284.243 612.329 280.927L680.672 259.694C692.593 255.99 705.373 256.097 717.23 260L762.545 274.914C772.666 278.244 783.49 278.82 793.907 276.582L852.806 263.926C879.905 258.103 907.466 271.6 919.481 296.579L928.635 315.609C948.944 357.83 915.19 405.997 868.573 401.318Z" fill="#2D2525"/>
</g>
<path d="M500.949 286.752L477.131 251.436C476.72 250.826 476.5 250.107 476.5 249.371C476.5 247.927 477.343 246.615 478.657 246.014L490.163 240.754C492.423 239.721 495.096 240.343 496.667 242.269L502.616 249.561C504.509 251.882 508.243 250.143 507.77 247.186C507.605 246.155 508.023 245.108 508.858 244.481C509.278 244.167 509.777 243.976 510.299 243.929L524.882 242.643C525.861 242.556 526.796 243.068 527.251 243.94C528.463 246.263 531.988 245.289 531.834 242.673L531.147 230.996C531.067 229.642 532.144 228.5 533.5 228.5L551 229C552.105 229 553 229.895 553 231V262.287C553 263.093 552.912 263.897 552.737 264.684L550.886 273.012C550.004 276.981 553.527 280.53 557.502 279.678C560.532 279.029 562.452 276.036 561.78 273.012L561.279 270.755C561.094 269.924 561.045 269.068 561.135 268.222L562.334 256.828C562.772 252.669 564.191 248.673 566.476 245.17C569.108 241.134 572.795 237.895 577.137 235.804L580.608 234.133C582.859 233.049 585.246 232.274 587.703 231.827C592.484 230.957 597.41 231.355 601.989 232.98L607.829 235.052C609.604 235.682 611.301 236.513 612.888 237.528L616.951 240.129C620.77 242.573 623.257 246.635 623.697 251.148L624.427 258.628C624.752 261.959 627.553 264.5 630.9 264.5C634.33 264.5 637.171 261.836 637.39 258.412L639.324 228.24C639.423 226.699 640.702 225.5 642.246 225.5C642.415 225.5 642.584 225.515 642.75 225.544L657.073 228.05C660.211 228.599 662.5 231.324 662.5 234.509V242.719C662.5 246.633 667.547 248.21 669.775 244.992C670.795 243.519 672.671 242.905 674.364 243.491L681.27 245.882C683.298 246.584 684.865 248.218 685.482 250.274L685.827 251.424C685.94 251.801 685.952 252.202 685.86 252.585C685.281 254.996 688.481 256.408 689.872 254.355L693.083 249.616C693.357 249.21 693.72 248.872 694.143 248.625L695.578 247.788C697.889 246.44 700.819 246.819 702.71 248.71C705.406 251.406 709.913 250.87 711.901 247.617L716.738 239.702C718.207 237.297 720.408 235.426 723.018 234.363L729.176 231.854C731.198 231.031 733.514 231.474 735.089 232.986L743.71 241.261C744.177 241.71 743.86 242.5 743.211 242.5C743.073 242.5 742.938 242.54 742.822 242.614L737.959 245.74C736.738 246.525 736 247.878 736 249.329C736 250.963 736.933 252.453 738.402 253.167L748.82 258.227C751.796 259.672 754.007 262.326 754.892 265.513L755.573 267.964C755.849 268.957 755.771 270.015 755.352 270.957C753.915 274.191 756.652 277.725 760.142 277.143L760.442 277.093C762.532 276.745 764.114 275.016 764.277 272.903L765.728 254.042C765.882 252.037 764.479 250.247 762.496 249.916L760.976 249.663C759.048 249.341 758.03 247.197 759 245.5L764.641 232.202C765.43 230.343 767.427 229.306 769.401 229.729C771.462 230.171 773.533 229.02 774.247 227.037L776.053 222.019C776.849 219.808 779.299 218.675 781.5 219.5L798.452 226.192C799.483 226.599 799.844 227.875 799.179 228.761C799.061 228.919 798.971 229.097 798.914 229.286L797.326 234.581C796.577 237.076 797.872 239.728 800.3 240.672C802.888 241.679 804.158 244.604 803.127 247.183L800.339 254.151C799.631 255.923 800.648 257.912 802.499 258.375C803.954 258.738 805.463 258.026 806.106 256.671L810.891 246.598C813.162 241.817 817.558 238.388 822.748 237.35L832.54 235.392C835.502 234.8 838.376 233.834 841.094 232.519L850.069 228.177C851.642 227.415 853.446 227.223 855.147 227.623C858.553 228.424 861 231.473 861 234.972C861 235.654 861.093 236.333 861.275 236.99L865.193 251.096C865.727 253.019 866.577 254.839 867.707 256.484L870.022 259.851C870.976 261.237 872.395 262.236 874.022 262.664C877.845 263.67 881.744 261.324 882.647 257.475L886.929 239.205C887.789 235.535 891.512 233.303 895.154 234.274C895.716 234.424 896.294 234.5 896.875 234.5H905.474C909.467 234.5 913.436 235.122 917.237 236.344L923.703 238.422C924.886 238.803 925.969 239.442 926.874 240.293C930.615 243.815 930.325 249.845 926.263 252.99L921.473 256.698C919.598 258.15 917.156 258.649 914.861 258.051C910.599 256.939 906.28 259.649 905.428 263.971L902.314 279.767C901.03 286.278 894.762 290.557 888.23 289.381L886.357 289.044C880.277 287.95 876.473 281.844 878.17 275.905L880.35 268.274C880.71 267.013 879.991 265.697 878.735 265.32C877.308 264.892 875.84 265.856 875.666 267.336L874.855 274.235C874.367 278.378 870.856 281.5 866.685 281.5H863.484C860.006 281.5 856.704 283.031 854.457 285.687L853.021 287.384C849.281 291.804 843.51 293.959 837.789 293.073L823.652 290.883C816.203 289.729 810.044 284.469 807.737 277.293C807.247 275.77 806.576 274.311 805.738 272.949L800.238 264.012C799.451 262.732 798.153 261.851 796.673 261.589C793.453 261.021 790.5 263.498 790.5 266.769V272.56C790.5 273.185 790.558 273.809 790.673 274.424L790.99 276.111C791.638 279.569 790.925 283.144 789 286.089L787.595 288.237C785.16 291.961 780.584 293.667 776.305 292.444C774.161 291.832 772.279 290.531 770.948 288.742L767.516 284.131C762.939 277.981 753.383 279.267 750.596 286.409C749.581 289.011 747.5 291.053 744.879 292.018L738.332 294.43C733.347 296.267 727.747 294.734 724.391 290.616L722.148 287.864C720.251 285.536 719.983 282.28 721.473 279.673C723.433 276.243 722.291 271.875 718.904 269.842L717.151 268.791C713.076 266.346 707.816 267.346 704.923 271.116L696.128 282.575C694.389 284.842 692.28 286.801 689.892 288.371L681.014 294.205C677.863 296.276 673.913 296.717 670.382 295.393L669.275 294.978C666.011 293.754 663.647 290.882 663.074 287.443L662.77 285.617C662.595 284.571 662.064 283.619 661.266 282.92C659.65 281.506 657.268 281.403 655.536 282.674L654.243 283.622C652.252 285.082 649.612 285.306 647.403 284.202L639.058 280.029C637.797 279.398 637 278.109 637 276.699C637 273.778 633.791 271.995 631.311 273.537L619.5 280.879C618.835 281.292 618.214 281.772 617.648 282.312L616.354 283.544C610.991 288.651 603.87 291.5 596.464 291.5H591.734C589.25 291.5 586.771 291.272 584.329 290.82L550.68 284.589C548.579 284.2 546.424 284.215 544.329 284.634L535.9 286.32C533.868 286.726 531.804 285.791 530.77 283.995C528.403 279.885 522.147 281.305 521.774 286.034C521.61 288.103 520.143 289.839 518.129 290.343L513.396 291.526C508.656 292.711 503.681 290.803 500.949 286.752Z" stroke="#FF0000"/>
</svg>
